# xmcd CD database file
#
# Track frame offsets:
#	150
#	18689
#	44836
#	58421
#	81519
#	93621
#	120188
#	153088
#	186618
#	204274
#
# Disc length: 3015 seconds
#
# Revision: 0
# Processed by: cddbd v1.5.2PL0 Copyright (c) Steve Scherf et al.
# Submitted via: CDex 1.78
#
DISCID=8e0bc50a
DTITLE=Reijseger, Fraanje, Sylla - Count till Zen
DYEAR=2015
DGENRE=Jazz
TTITLE0=Perhaps
TTITLE1=Bakou
TTITLE2=Badola
TTITLE3=Count till Zen
TTITLE4=Headstream
TTITLE5=Debenti
TTITLE6=Out of the Wilderness
TTITLE7=Faleme
TTITLE8=E Konkon
TTITLE9=Friuli
EXTD=YEAR: 2015
EXTT0=
EXTT1=
EXTT2=
EXTT3=
EXTT4=
EXTT5=
EXTT6=
EXTT7=
EXTT8=
EXTT9=
PLAYORDER=
